<svg xmlns="http://www.w3.org/2000/svg" viewBox="0 0 512 512" role="img" aria-label="CakeCost">
  <rect width="512" height="512" rx="104" fill="#fff7ed"/>
  <circle cx="392" cy="132" r="50" fill="#0f766e"/>
  <path d="M364 132c0-16 12-28 28-28 8 0 15 3 20 8" fill="none" stroke="#fff7ed" stroke-width="18" stroke-linecap="round"/>
  <path d="M414 132c0-16 12-28 28-28 8 0 15 3 20 8" fill="none" stroke="#fff7ed" stroke-width="18" stroke-linecap="round"/>
  <path d="M106 260h266l-20 126c-5 31-31 54-63 54H189c-32 0-58-23-63-54l-20-126Z" fill="#b83256"/>
  <path d="M128 264c12-54 61-94 119-94s107 40 119 94" fill="#f7c7d1"/>
  <path d="M143 258c-15 0-28-13-28-28s12-27 27-28c9-42 47-74 92-74 18 0 35 5 49 14 13-18 34-29 58-29 39 0 71 32 71 71 0 32-21 59-50 68" fill="#ffffff" stroke="#27313a" stroke-width="18" stroke-linecap="round" stroke-linejoin="round"/>
  <path d="M172 319h150M183 374h128" stroke="#fff7ed" stroke-width="24" stroke-linecap="round"/>
  <circle cx="209" cy="226" r="11" fill="#b45309"/>
  <circle cx="271" cy="207" r="10" fill="#0f766e"/>
  <circle cx="318" cy="239" r="11" fill="#b45309"/>
</svg>
